<svg width="20" height="20" viewBox="0 0 20 20" fill="none" xmlns="http://www.w3.org/2000/svg">
<path d="M16.729 8.34905C16.7257 6.48469 16.0996 4.67489 14.95 3.20707C13.8004 1.73925 12.1934 0.697559 10.384 0.247437C8.5747 -0.202685 6.66684 -0.035432 4.96344 0.722634C3.26004 1.4807 1.85877 2.78611 0.982165 4.43156C0.105558 6.07701 -0.196123 7.96815 0.125033 9.80464C0.446188 11.6411 1.37177 13.3177 2.75478 14.568C4.13778 15.8184 5.89893 16.5709 7.75851 16.7059C9.6181 16.841 11.4695 16.3509 13.0187 15.3136L17.7055 20L20 17.7056L15.3133 13.0192C16.239 11.6378 16.7319 10.0119 16.729 8.34905V8.34905ZM8.34825 13.4911C7.3344 13.4911 6.34332 13.1905 5.50033 12.6272C4.65735 12.064 4.00032 11.2635 3.61233 10.3269C3.22435 9.39025 3.12283 8.35963 3.32063 7.36533C3.51842 6.37103 4.00664 5.45771 4.72354 4.74085C5.44044 4.024 6.35382 3.53582 7.34819 3.33804C8.34256 3.14026 9.37326 3.24177 10.3099 3.62973C11.2466 4.01768 12.0472 4.67467 12.6105 5.51759C13.1737 6.36052 13.4744 7.35154 13.4744 8.36532C13.4744 9.72476 12.9343 11.0285 11.973 11.9898C11.0116 12.9511 9.70778 13.4911 8.34825 13.4911Z" fill="#ED7458"/>
</svg>
